<svg xmlns="http://www.w3.org/2000/svg" xmlns:xlink="http://www.w3.org/1999/xlink" width="1080" zoomAndPan="magnify" viewBox="0 0 810 809.999993" height="1080" preserveAspectRatio="xMidYMid meet" version="1.0"><defs><g/></defs><g fill="#ede2c7" fill-opacity="1"><g transform="translate(179.505345, 499.848396)"><g><path d="M 259.484375 0 L 23.59375 0 L 23.59375 -12.1875 L 60.546875 -41.28125 L 60.546875 -279.53125 L 19.65625 -293.296875 L 27.515625 -309.015625 L 147.046875 -309.015625 L 147.046875 -296.828125 L 109.6875 -267.734375 L 109.6875 -17.6875 L 211.125 -17.6875 L 268.921875 -103 L 280.71875 -99.078125 L 280.71875 7.078125 Z M 259.484375 0 "/></g></g></g><g fill="#ede2c7" fill-opacity="1"><g transform="translate(351.279214, 634.584103)"><g><path d="M 184.78125 -312.5625 C 211.78125 -312.5625 235.695312 -306.070312 256.53125 -293.09375 C 277.375 -280.125 293.492188 -262.101562 304.890625 -239.03125 C 316.296875 -215.96875 322 -189.890625 322 -160.796875 C 322 -130.921875 313.28125 -103.335938 295.84375 -78.046875 C 278.414062 -52.753906 256.789062 -32.703125 230.96875 -17.890625 C 205.15625 -3.078125 180.457031 4.328125 156.875 4.328125 C 144.8125 4.328125 132.625 3.671875 120.3125 2.359375 C 100.125 1.046875 84.523438 0.390625 73.515625 0.390625 L 23.59375 0.390625 L 23.59375 -11.796875 L 60.546875 -40.890625 L 60.546875 -279.921875 L 19.65625 -293.296875 L 27.515625 -309.015625 L 73.125 -309.015625 C 98.03125 -309.015625 122.273438 -309.800781 145.859375 -311.375 C 163.679688 -312.425781 176.65625 -312.953125 184.78125 -312.953125 Z M 167.875 -24.765625 C 186.75 -24.765625 203.914062 -29.8125 219.375 -39.90625 C 234.84375 -50 246.96875 -64.019531 255.75 -81.96875 C 264.53125 -99.925781 268.921875 -120.046875 268.921875 -142.328125 C 268.921875 -169.054688 264.722656 -193.363281 256.328125 -215.25 C 247.941406 -237.132812 235.164062 -254.628906 218 -267.734375 C 200.832031 -280.835938 179.539062 -287.390625 154.125 -287.390625 C 138.132812 -287.390625 123.320312 -282.675781 109.6875 -273.25 L 109.6875 -34.59375 C 125.675781 -28.039062 145.070312 -24.765625 167.875 -24.765625 Z M 167.875 -24.765625 "/></g></g></g></svg>